<svg xmlns="http://www.w3.org/2000/svg" viewBox="0 0 818.39 604.08"><defs><style>.cls-1{fill:#fff;}</style></defs><g id="圖層_2" data-name="圖層 2"><g id="Layer_1" data-name="Layer 1"><path class="cls-1" d="M627.9,12.77a138.17,138.17,0,0,1,18,10.32c2.9,1.86,5.62,4,8.37,6.07,1.41,1,2.67,2.19,4,3.28s2.67,2.19,3.92,3.38A180.44,180.44,0,0,1,689.22,67a235.7,235.7,0,0,1,20.38,35.89Q714,112.2,717.53,122a181,181,0,0,1,6.07,19.84,146.76,146.76,0,0,1,3.48,20.57,109.75,109.75,0,0,1,0,21c-.17,1.75-.32,3.51-.66,5.24l-.44,2.6a26,26,0,0,1-.51,2.6l-1.23,5.15-1.58,5a72.93,72.93,0,0,1-9.71,18.93,79.44,79.44,0,0,1-32.46,26.7A65.82,65.82,0,0,1,660,254.9,54.73,54.73,0,0,1,639,252.71a1.23,1.23,0,0,1,.59-2.38h0a58.55,58.55,0,0,0,19.84.42,57.82,57.82,0,0,0,9.64-2.22,70.55,70.55,0,0,0,9.2-3.62,84.64,84.64,0,0,0,8.61-4.87,81.75,81.75,0,0,0,7.92-5.94,79.43,79.43,0,0,0,13.36-14.54,75.43,75.43,0,0,0,5.17-8.4,67,67,0,0,0,3.9-9,87.6,87.6,0,0,0,4.43-19.36,104.53,104.53,0,0,0,.49-20,148.9,148.9,0,0,0-2.86-20,178.36,178.36,0,0,0-5.4-19.57c-2.14-6.43-4.57-12.79-7.35-19a222.25,222.25,0,0,0-19.49-35.8c-.92-1.43-1.92-2.8-2.92-4.18l-3-4.12-3.16-4-1.58-2-1.67-1.93-3.34-3.86c-1.14-1.25-2.33-2.46-3.5-3.7-2.3-2.51-4.85-4.75-7.31-7.1A136.09,136.09,0,0,0,626.87,15l0,0a1.23,1.23,0,1,1,1-2.22Z"/><path class="cls-1" d="M633.71,2.46c-2.27.14-4.53.35-6.78.59s-4.51.5-6.76.81-4.49.63-6.73,1S609,5.63,606.72,6l1.84-2.35a124.31,124.31,0,0,0,3.82,12.8c.72,2.1,1.54,4.16,2.27,6.25s1.47,4.21,2.11,6.41l-3.44,1.67a27.18,27.18,0,0,1-.45-2.75A1.28,1.28,0,0,1,614,26.66a1.3,1.3,0,0,1,1.11.43,24.89,24.89,0,0,1,1.7,2.2,1.86,1.86,0,0,1-3,2.25l-.48-.58a31.76,31.76,0,0,1-3.86-6,43,43,0,0,1-2.6-6.65,58.76,58.76,0,0,1-2.47-14l0-.33a1.9,1.9,0,0,1,1.78-2h.08c2.28,0,4.55-.09,6.82-.18s4.54-.22,6.8-.38S624.44,1,626.7.79s4.51-.46,6.76-.78a1.24,1.24,0,0,1,1.39,1.05,1.24,1.24,0,0,1-1.05,1.39Z"/><path class="cls-1" d="M387.71,227.38a778.15,778.15,0,0,0-78.13,8,673.13,673.13,0,0,0-77.09,16.31,553,553,0,0,0-72.32,25.07A428.28,428.28,0,0,0,93.49,312.1c-10,6.59-19.7,13.73-29,21.27a222.34,222.34,0,0,0-26.14,24.74c-3.76,4.22-7.27,8.67-10.7,13.17a172.67,172.67,0,0,0-10.51,15.58A127.09,127.09,0,0,0,9.4,402.08a121.06,121.06,0,0,0-5.8,17.29,127.9,127.9,0,0,0-3,16.84,97.1,97.1,0,0,0-.35,18.36A109.85,109.85,0,0,0,3,471.66a123.52,123.52,0,0,0,5.83,18,117.29,117.29,0,0,0,6.75,13.85,147.33,147.33,0,0,0,8.64,13.24,198.54,198.54,0,0,0,20.41,24.15,239.76,239.76,0,0,0,24.26,21,219.66,219.66,0,0,0,27.28,17.73,192,192,0,0,0,29.65,13.18A194.18,194.18,0,0,0,158.43,601a227.43,227.43,0,0,0,33.76,3.08c5.78.09,11.58-.07,17.36-.23,3-.08,6.07-.17,9.1-.34s5.84-.39,8.75-.58c0,0,0,0,0,0-4.9-.53-9.8-1-14.7-1.61-5.76-.74-11.54-1.41-17.31-2.17-6.51-.9-13-2-19.41-3.26q-9.93-2-19.75-4.51a280.27,280.27,0,0,1-38.11-12.94c-3.83-1.65-7.62-3.36-11.37-5.2-4.41-2.17-8.72-4.56-13-7a220.47,220.47,0,0,1-22.67-15.29c-6.39-5-12.55-10.32-18.42-15.94A179.37,179.37,0,0,1,35.47,515.7,140.34,140.34,0,0,1,18.3,487.64a121.74,121.74,0,0,1-7.88-28.26,93.53,93.53,0,0,1,.12-25,129.46,129.46,0,0,1,3.19-15.2,116.61,116.61,0,0,1,4.75-13.69,154.58,154.58,0,0,1,18.85-31.23,218.49,218.49,0,0,1,19.53-21.93,265.46,265.46,0,0,1,22.45-19.4q10.25-7.9,21-15.15c7.51-5.08,15.25-9.8,23.11-14.31a473.89,473.89,0,0,1,50-24.69l-.57.24.65-.28.19-.08-.16.07a588.12,588.12,0,0,1,78.53-26.32,701,701,0,0,1,83.61-16.18,783.84,783.84,0,0,1,103.16-6.64,799.16,799.16,0,0,1,104.62,7,697.63,697.63,0,0,1,87.84,17.09c29,7.75,57.22,18.08,84.83,29.74l-.18-.08c10.6,4.5,21.08,9.27,31.24,14.71,5.21,2.79,10.27,5.84,15.27,9s9.63,6.35,14.21,9.86a116.9,116.9,0,0,1,10.75,9.51,137.44,137.44,0,0,1,10.15,11.55c2.26,2.93,4.38,5.94,6.36,9.08a77.83,77.83,0,0,1,5.08,9.65,98,98,0,0,1,5.86,21.61c0-.1,0-.21,0-.31a91.42,91.42,0,0,1,.79,9.78,63.62,63.62,0,0,1-.54,9.25,87.9,87.9,0,0,1-6.4,22.58l.21-.51a102.5,102.5,0,0,1-4.93,9.83,91.84,91.84,0,0,1-6.75,10.05,136,136,0,0,1-13.39,14.49c-5.1,4.82-10.55,9.23-16.09,13.53a222.42,222.42,0,0,1-30.18,18.85c-5.56,2.94-11.21,5.69-16.9,8.38s-11.52,5.36-17.37,7.86l.35-.15-.4.17-.36.15.31-.13c-11.75,4.92-23.72,9.25-35.8,13.27q-18.4,6.12-37.09,11.48c-25.22,7.3-50.85,13.11-76.53,18.55-1.78.37-3.54.78-5.33,1.09l-3.31.58-12.44,2.16-37.5,6.52-39.52,6.87-57.95,7-28,3.39c-1.06.13-2.1.24-3.17.31l-11.24.74c-20.35,1.35-40.7,2.75-61.06,4-.62,0-1.25,0-1.87,0l-6.15,0q-9.24,0-18.49.08t-18.29.12l-5.55,0c-.65,0-1.32,0-2,0q-8.73-.5-17.44-1c-4.3-.23-8.61-.37-12.9-.71-5.36-.44-10.72-.82-16.08-1.23-2.74-.21-5.47-.39-8.2-.6-3.14-.25-6.28-.42-9.4-.76,0,0,0,0,0,0,4.29.77,8.64,1.21,13,1.67,4.53.48,9.07.91,13.6,1.32,3.65.33,7.3.67,11,.92q8.85.59,17.72,1.14l7.21.44c.7.05,1.4.1,2.11.11l11.48.12q18,.17,36.06.27c1.66,0,3.32.07,5,0l10-.57,37.59-2.12L367.74,576c1.38-.08,2.77-.29,4.14-.45l12.95-1.43,68.23-7.55c1.26-.14,2.52-.24,3.77-.45l7.39-1.2,33.64-5.46,37.26-6.05L547,551.49l2.8-.45c2.78-.45,5.53-1.08,8.29-1.64,25.74-5.18,51.4-10.86,76.7-17.93q18.66-5.24,37.1-11.26c12.25-4,24.36-8.4,36.23-13.39,11.09-4.67,22-9.92,32.59-15.53a216.72,216.72,0,0,0,30.47-19.23c4.34-3.32,8.46-6.93,12.48-10.63A150.76,150.76,0,0,0,796.6,448,104.47,104.47,0,0,0,806,434.86a86.45,86.45,0,0,0,7.19-15.49,90.54,90.54,0,0,0,4.2-16.28,74.55,74.55,0,0,0,.81-16.75,85.65,85.65,0,0,0-2.67-15.65,101.54,101.54,0,0,0-5.79-15.94,82.44,82.44,0,0,0-8.48-14.34,128,128,0,0,0-10.92-13.11,111.61,111.61,0,0,0-12.68-11.52c-4.63-3.64-9.53-6.91-14.49-10.07s-10.08-6.17-15.27-9c-5.72-3.1-11.58-5.94-17.49-8.66-11.12-5.13-22.47-9.77-33.86-14.25q-18.11-7.14-36.6-13.22c-12.32-4.06-24.79-7.64-37.35-10.88a715.2,715.2,0,0,0-77-15.08q-38.82-5.58-78-7.4-18.92-.9-37.86-.89-21,0-42,1Zm-377,206c0,.19-.05.38-.07.56,0-.18,0-.37.07-.56Zm25.17,82.81.19.26-.19-.26Zm159.88,83,.28,0-.28,0Zm507.45-97.06.05,0,0,0-.1,0ZM173.5,278.74l-.08,0,.11,0Z"/></g></g></svg>