<svg xmlns="http://www.w3.org/2000/svg" viewBox="0 0 173.68 173.68"><defs><style>.cls-1{fill:#fff;}</style></defs><g id="圖層_2" data-name="圖層 2"><g id="Layer_1" data-name="Layer 1"><path class="cls-1" d="M86,88.58a1.74,1.74,0,0,1,1.61-1.85h28.73a1.86,1.86,0,0,1,0,3.69H87.56A1.73,1.73,0,0,1,86,88.58Z"/><path class="cls-1" d="M29.86,88.58a1.74,1.74,0,0,1,1.61-1.85H77.72a1.86,1.86,0,0,1,0,3.69H31.47A1.73,1.73,0,0,1,29.86,88.58Z"/><path class="cls-1" d="M137.78,78.62l-31.92-18.5v5.32l29.63,17.18c4.74,2.68,4.76,6.67,0,9.37l-30,17.28a2.3,2.3,0,1,0,2.3,4l30-17.27c3.92-2.21,6.08-5.3,6.08-8.69S141.67,80.82,137.78,78.62Z"/><path class="cls-1" d="M86.84,173.68A86.84,86.84,0,1,1,131.15,12.14a2.64,2.64,0,0,1-2.7,4.54,81.6,81.6,0,1,0,16.07,12.49,2.64,2.64,0,1,1,3.73-3.74A86.85,86.85,0,0,1,86.84,173.68Z"/></g></g></svg>