<svg id="圖層_1" data-name="圖層 1" xmlns="http://www.w3.org/2000/svg" xmlns:xlink="http://www.w3.org/1999/xlink" viewBox="0 0 1125 2437"><defs><linearGradient id="linear-gradient" x1="172.39" y1="443.9" x2="172.39" y2="198.63" gradientTransform="matrix(1, -0.01, -0.01, 1.21, -62.01, 1221.1)" gradientUnits="userSpaceOnUse"><stop offset="0" stop-color="#253f3f"/><stop offset="0.13" stop-color="#2d534e"/><stop offset="0.35" stop-color="#387063"/><stop offset="0.57" stop-color="#408472"/><stop offset="0.79" stop-color="#45917b"/><stop offset="1" stop-color="#47957e"/></linearGradient><linearGradient id="linear-gradient-2" x1="-4816.67" y1="1680.84" x2="-4816.67" y2="1489.4" gradientTransform="matrix(-1, 0.01, 0.01, 1, -4567.45, -150.03)" xlink:href="#linear-gradient"/><linearGradient id="linear-gradient-3" x1="-5396.3" y1="1657.58" x2="-5396.3" y2="1465.97" gradientTransform="matrix(-1, 0, 0, 1, -4545.87, -133.8)" xlink:href="#linear-gradient"/><linearGradient id="linear-gradient-4" x1="-5544.94" y1="1981.03" x2="-5544.94" y2="1683.68" gradientTransform="matrix(-1, 0.01, 0.01, 1, -4567.45, -150.03)" xlink:href="#linear-gradient"/><linearGradient id="linear-gradient-5" x1="-4923.46" y1="1533.03" x2="-4923.46" y2="1403.2" gradientTransform="matrix(-1, 0.01, 0.01, 1, -4567.45, -150.03)" xlink:href="#linear-gradient"/><linearGradient id="linear-gradient-6" x1="800.99" y1="167.41" x2="800.99" y2="51.53" gradientTransform="matrix(1, -0.01, -0.01, 1.25, -57.06, 1123.7)" xlink:href="#linear-gradient"/><clipPath id="clip-path"><rect width="1125" height="2437" style="fill:none"/></clipPath><linearGradient id="linear-gradient-7" x1="576.96" y1="2443.47" x2="548.04" y2="-6.47" gradientUnits="userSpaceOnUse"><stop offset="0" stop-color="#d3dc73"/><stop offset="1" stop-color="#38aea1"/></linearGradient><linearGradient id="linear-gradient-8" x1="554.5" y1="2437" x2="554.5" y2="1335.95" gradientUnits="userSpaceOnUse"><stop offset="0" stop-color="#38aea1"/><stop offset="1" stop-color="#d3dc73"/></linearGradient><linearGradient id="linear-gradient-9" x1="557.5" x2="557.5" y2="1335.95" xlink:href="#linear-gradient-8"/><clipPath id="clip-path-2"><path d="M172,1663.09c-1.82-7.13-8.69-10.3-14-6.34-4,3-8.37,5.52-15.92,3.71-14-3.37-10.36-22.32-6.26-27s9.91-7.33,15.47-8.83c15.91-4.28,28.59-19.72,30.59-39.34,3.26-32.07-16.51-57.56-27.82-63.51-23.06-12.14-3.35-53.59-40.43-60.55-29.13-5.48-50.59,24.08-40.94,52.27,7.06,20.6-2.54,33.87-19.69,49.53-34,31-5.28,80-16.33,105.46-15.67,36.11,2.33,87.29,65.13,89.87,59.06,2.42,86.14-32.8,70.21-95.18ZM88.86,1692.6c-7.39-5-11.18,22.67-29.3,13-10.36-5.5-11.76-15.67-11.05-23.37a31.12,31.12,0,0,1,7.85-18.3C63,1656.9,69.12,1660,81.81,1662,97.91,1664.6,96.24,1697.63,88.86,1692.6Zm14.66-116.18c-1.86,9.33-11.9,5-21.38,16.32s-20.52-1.1-20.52-1.1-8.16-9.6,7.06-19.93S105.39,1567.08,103.52,1576.42Z" style="fill:url(#linear-gradient)"/></clipPath><linearGradient id="linear-gradient-11" x1="121.31" y1="696.02" x2="121.31" y2="399.06" gradientTransform="matrix(1, 0.05, -0.06, 1.21, 8.99, 939.23)" gradientUnits="userSpaceOnUse"><stop offset="0" stop-color="#47957e"/><stop offset="1" stop-color="#253f3f"/></linearGradient><linearGradient id="linear-gradient-12" x1="146.4" y1="819.83" x2="146.4" y2="484.95" gradientTransform="matrix(1, 0.05, -0.06, 1.21, 8.99, 939.23)" gradientUnits="userSpaceOnUse"><stop offset="0" stop-color="#a76d44"/><stop offset="0.04" stop-color="#a16941"/><stop offset="0.29" stop-color="#845734"/><stop offset="0.53" stop-color="#6f4a2a"/><stop offset="0.77" stop-color="#624324"/><stop offset="1" stop-color="#5e4022"/></linearGradient><clipPath id="clip-path-3"><path d="M215.93,1411c-14.43,39.72,5.59,63,51.78,62.81,49.12-.18,64.81-32.65,53.73-56.22-7.81-16.61,16.18-47.41-9.37-68.15-12.89-10.47-20-19.22-13.79-32.3,8.43-17.89-7.38-37.38-30.29-34.54-29.17,3.6-15.11,30.7-33.51,38-9,3.56-25.28,19.47-23.75,40.16.93,12.65,10.34,22.87,22.62,26,4.3,1.09,8.78,2.94,11.8,6s5.28,15.4-5.76,17.23a15.3,15.3,0,0,1-12.31-2.75A7.48,7.48,0,0,0,216,1411Zm70.43,1.41c10-1,14.84-2.86,19.81,1.83a18,18,0,0,1,5.55,11.94c.3,5-1.11,11.47-9.38,14.77-14.46,5.76-16.53-12.12-22.46-9.06S273.71,1413.68,286.36,1412.41Zm13.15-57.74c11.55,7,4.87,13,4.87,13s-9,7.72-16.05.23-15-4.95-16.18-11S288,1347.67,299.51,1354.67Z" style="fill:url(#linear-gradient-2)"/></clipPath><linearGradient id="linear-gradient-14" x1="-4825.86" y1="1701.77" x2="-4825.86" y2="1469.7" gradientTransform="matrix(-1, 0.01, 0.01, 1, -4567.45, -150.03)" xlink:href="#linear-gradient-11"/><linearGradient id="linear-gradient-15" x1="-4811.26" y1="1810.88" x2="-4811.26" y2="1536.81" gradientTransform="matrix(-1, 0.01, 0.01, 1, -4567.45, -150.03)" xlink:href="#linear-gradient-12"/><clipPath id="clip-path-4"><path d="M821.38,1400.36c11.54,9.62,2.38,10.17,8.5,28.57,9.12,27.45,33.33,27.39,50.41,12.12,12.46-11.13-6-34.89,14.35-40.88s18.29-24.56,7.39-33.45-12.72-14.62-2.1-23.76c8.23-7.08,11.31-21.2-.23-30.83s-19.84-12.57-14.83-24.1c7.82-18-10.41-28.36-25.7-28.32s-26.46,6.43-21.46,26.21c3.94,15.59-19,13.37-27.8,30.9s27.54,18.5.38,49.77C796.14,1382.89,809.84,1390.73,821.38,1400.36Zm48.31-66.15c-8.85-2.52-20.66-9.53-11.73-13.94s19.66.29,19.66.29c3.59.41,25,14.24,12.73,18.71S878.53,1336.74,869.69,1334.21Zm-12.94-58c6.74-.34,12.83,11.48,4.55,13s-6.41-5.55-12.14-5.54S849.1,1276.61,856.75,1276.22Zm-38.67,108.92c-10.84-.72-2.59-5.57,1.8-14.12a9.35,9.35,0,0,1,5.73-4.32c10.76-3.5,22.62,3.58,17.45,10.1S825.69,1385.64,818.08,1385.14Z" style="fill:url(#linear-gradient-3)"/></clipPath><linearGradient id="linear-gradient-17" x1="-5413.91" y1="1612.58" x2="-5413.91" y2="1421.22" gradientTransform="matrix(-1, 0, 0, 1, -4545.87, -133.8)" gradientUnits="userSpaceOnUse"><stop offset="0" stop-color="#47957e"/><stop offset="0.21" stop-color="#45917b"/><stop offset="0.43" stop-color="#408472"/><stop offset="0.65" stop-color="#387063"/><stop offset="0.87" stop-color="#2d534e"/><stop offset="1" stop-color="#253f3f"/></linearGradient><linearGradient id="linear-gradient-18" x1="-5389.6" y1="1751.86" x2="-5389.6" y2="1491.48" gradientTransform="matrix(-1, 0, 0, 1, -4545.87, -133.8)" gradientUnits="userSpaceOnUse"><stop offset="0" stop-color="#a76d44"/><stop offset="0.05" stop-color="#a06941"/><stop offset="0.29" stop-color="#835733"/><stop offset="0.53" stop-color="#6e4a2a"/><stop offset="0.77" stop-color="#624324"/><stop offset="1" stop-color="#5e4022"/></linearGradient><clipPath id="clip-path-5"><path d="M926.44,1667.82c-20.22,61.69,7.82,97.82,72.54,97.56,68.82-.29,90.81-50.72,75.28-87.33-11-25.8,22.67-73.64-13.13-105.85-18.06-16.27-28-29.86-19.32-50.17,11.82-27.78-10.33-58.06-42.44-53.65-40.87,5.59-21.17,47.69-47,59-12.63,5.52-35.41,30.24-33.27,62.37,1.3,19.65,14.49,35.53,31.69,40.38,6,1.7,12.3,4.57,16.53,9.37s7.4,23.91-8.06,26.76c-8.34,1.54-13-1.13-17.25-4.28-5.63-4.14-13.29-1.22-15.6,5.82Zm98.68,2.19c14-1.56,20.78-4.45,27.74,2.84a29.28,29.28,0,0,1,7.77,18.55c.43,7.71-1.55,17.81-13.13,22.93-20.26,9-23.16-18.82-31.46-14.07S1007.39,1672,1025.12,1670Zm18.41-89.69c16.18,10.86,6.83,20.15,6.83,20.15s-12.62,12-22.49.35-21-7.68-22.67-17.07S1027.35,1569.46,1043.53,1580.32Z" style="fill:url(#linear-gradient-4)"/></clipPath><linearGradient id="linear-gradient-20" x1="-5557.82" y1="2013.51" x2="-5557.82" y2="1653.01" gradientTransform="matrix(-1, 0.01, 0.01, 1, -4567.45, -150.03)" xlink:href="#linear-gradient-11"/><linearGradient id="linear-gradient-21" x1="-5537.01" y1="2183.02" x2="-5537.01" y2="1757.32" gradientTransform="matrix(-1, 0.01, 0.01, 1, -4567.45, -150.03)" xlink:href="#linear-gradient-12"/><clipPath id="clip-path-6"><path d="M337.91,1282.16c-9.79,26.93,3.78,42.71,35.11,42.59,33.31-.12,44-22.14,36.44-38.13-5.3-11.26,11-32.15-6.36-46.21-8.74-7.11-13.53-13-9.35-21.91,5.72-12.13-5-25.35-20.54-23.42-19.78,2.44-10.25,20.82-22.73,25.74-6.11,2.42-17.14,13.21-16.1,27.24.63,8.58,7,15.51,15.34,17.63a17.09,17.09,0,0,1,8,4.09c2.07,2.12,3.58,10.44-3.9,11.68a10.3,10.3,0,0,1-8.35-1.87,5.08,5.08,0,0,0-7.55,2.55Zm47.76.95c6.76-.68,10.06-1.94,13.43,1.24a12.23,12.23,0,0,1,3.76,8.1,9.4,9.4,0,0,1-6.35,10c-9.81,3.91-11.22-8.21-15.23-6.14S377.09,1284,385.67,1283.11Zm8.91-39.16c7.84,4.75,3.31,8.8,3.31,8.8s-6.11,5.23-10.89.15-10.18-3.35-11-7.45S386.75,1239.21,394.58,1244Z" style="fill:url(#linear-gradient-5)"/></clipPath><linearGradient id="linear-gradient-23" x1="-4929.69" y1="1547.22" x2="-4929.69" y2="1389.84" gradientTransform="matrix(-1, 0.01, 0.01, 1, -4567.45, -150.03)" xlink:href="#linear-gradient-11"/><linearGradient id="linear-gradient-24" x1="-4919.79" y1="1621.21" x2="-4919.79" y2="1435.35" gradientTransform="matrix(-1, 0.01, 0.01, 1, -4567.45, -150.03)" xlink:href="#linear-gradient-12"/><clipPath id="clip-path-7"><path d="M773.72,1276.33c-.86-3.46-4.1-5-6.62-3.07-1.9,1.46-4,2.68-7.52,1.81-6.61-1.63-4.88-10.84-2.94-13.14a14.62,14.62,0,0,1,7.32-4.3c7.52-2.09,13.52-9.6,14.48-19.13,1.56-15.59-7.77-28-13.1-30.84-10.89-5.88-1.55-26-19.07-29.39-13.75-2.64-23.91,11.73-19.37,25.42,3.32,10-1.23,16.46-9.34,24.08-16.08,15.1-2.55,38.88-7.79,51.26-7.43,17.55,1,42.41,30.71,43.61,27.91,1.14,40.73-16,33.24-46.29Zm-39.28,14.39c-3.49-2.43-5.3,11-13.86,6.36-4.89-2.67-5.54-7.61-5.2-11.36a15.34,15.34,0,0,1,3.72-8.89c3.15-3.44,6-1.92,12-.95C738.73,1277.11,737.92,1293.16,734.44,1290.72Zm7-56.46c-.88,4.53-5.62,2.44-10.11,8s-9.7-.53-9.7-.53S717.79,1237,725,1232,742.33,1229.72,741.44,1234.26Z" style="fill:url(#linear-gradient-6)"/></clipPath><linearGradient id="linear-gradient-26" x1="743.92" y1="373.85" x2="743.92" y2="233.56" gradientTransform="matrix(1, 0.05, -0.06, 1.25, 14.35, 833.71)" xlink:href="#linear-gradient-11"/><linearGradient id="linear-gradient-27" x1="755.78" y1="432.34" x2="755.78" y2="274.13" gradientTransform="matrix(1, 0.05, -0.06, 1.25, 14.35, 833.71)" xlink:href="#linear-gradient-12"/></defs><title>未命名-2</title><g style="clip-path:url(#clip-path)"><rect width="1125" height="2437" style="fill:url(#linear-gradient-7)"/><polygon points="1631 2437 -522 2433.19 387.04 1335.95 748.75 1335.95 1631 2437" style="opacity:0.30000000000000004;fill:url(#linear-gradient-8)"/><polygon points="1486 2437 -371 2433.19 413.07 1335.95 725.04 1335.95 1486 2437" style="fill:url(#linear-gradient-9)"/><path d="M172,1663.09c-1.82-7.13-8.69-10.3-14-6.34-4,3-8.37,5.52-15.92,3.71-14-3.37-10.36-22.32-6.26-27s9.91-7.33,15.47-8.83c15.91-4.28,28.59-19.72,30.59-39.34,3.26-32.07-16.51-57.56-27.82-63.51-23.06-12.14-3.35-53.59-40.43-60.55-29.13-5.48-50.59,24.08-40.94,52.27,7.06,20.6-2.54,33.87-19.69,49.53-34,31-5.28,80-16.33,105.46-15.67,36.11,2.33,87.29,65.13,89.87,59.06,2.42,86.14-32.8,70.21-95.18ZM88.86,1692.6c-7.39-5-11.18,22.67-29.3,13-10.36-5.5-11.76-15.67-11.05-23.37a31.12,31.12,0,0,1,7.85-18.3C63,1656.9,69.12,1660,81.81,1662,97.91,1664.6,96.24,1697.63,88.86,1692.6Zm14.66-116.18c-1.86,9.33-11.9,5-21.38,16.32s-20.52-1.1-20.52-1.1-8.16-9.6,7.06-19.93S105.39,1567.08,103.52,1576.42Z" style="fill:url(#linear-gradient)"/><g style="clip-path:url(#clip-path-2)"><path d="M66.49,1427.76c1.42.07,68.68,19.75,56.27,57.46-11,33.31-38.4,27.37-30.71,50.14,9.39,27.77,56.27-10.34,57.73,38.36.87,29.67-33.18,51.76-70.42,70.77-14.72,7.52-24.77,65,47.46,43.07,43.36-13.13,56.54,61.54,16.09,87.37s-113.2,29.68-119-72.85-4.86-205.29,17.47-222.16S66.49,1427.76,66.49,1427.76Z" style="fill:url(#linear-gradient-11)"/></g><polygon points="110 1534.48 100.56 1938.49 120 1942.49 113.49 1536.35 110 1534.48" style="fill:url(#linear-gradient-12)"/><path d="M215.93,1411c-14.43,39.72,5.59,63,51.78,62.81,49.12-.18,64.81-32.65,53.73-56.22-7.81-16.61,16.18-47.41-9.37-68.15-12.89-10.47-20-19.22-13.79-32.3,8.43-17.89-7.38-37.38-30.29-34.54-29.17,3.6-15.11,30.7-33.51,38-9,3.56-25.28,19.47-23.75,40.16.93,12.65,10.34,22.87,22.62,26,4.3,1.09,8.78,2.94,11.8,6s5.28,15.4-5.76,17.23a15.3,15.3,0,0,1-12.31-2.75A7.48,7.48,0,0,0,216,1411Zm70.43,1.41c10-1,14.84-2.86,19.81,1.83a18,18,0,0,1,5.55,11.94c.3,5-1.11,11.47-9.38,14.77-14.46,5.76-16.53-12.12-22.46-9.06S273.71,1413.68,286.36,1412.41Zm13.15-57.74c11.55,7,4.87,13,4.87,13s-9,7.72-16.05.23-15-4.95-16.18-11S288,1347.67,299.51,1354.67Z" style="fill:url(#linear-gradient-2)"/><g style="clip-path:url(#clip-path-3)"><path d="M305.82,1262.22c-1.11,0-54.25,11.08-45.77,35.6,7.5,21.67,29.1,18.49,22.37,32.94-8.22,17.63-43.61-8-46.3,23.3-1.63,19,24.25,34,52.72,47.13,11.25,5.18,17.26,42.32-38.44,26.57C217,1418.3,204.28,1466,235,1483.52s87.44,21.73,95.23-44,10.37-131.81-6.53-143.18S305.82,1262.22,305.82,1262.22Z" style="fill:url(#linear-gradient-14)"/></g><polygon points="268.44 1329.77 272.74 1599.82 256.62 1603.99 265.65 1330.9 268.44 1329.77" style="fill:url(#linear-gradient-15)"/><path d="M821.38,1400.36c11.54,9.62,2.38,10.17,8.5,28.57,9.12,27.45,33.33,27.39,50.41,12.12,12.46-11.13-6-34.89,14.35-40.88s18.29-24.56,7.39-33.45-12.72-14.62-2.1-23.76c8.23-7.08,11.31-21.2-.23-30.83s-19.84-12.57-14.83-24.1c7.82-18-10.41-28.36-25.7-28.32s-26.46,6.43-21.46,26.21c3.94,15.59-19,13.37-27.8,30.9s27.54,18.5.38,49.77C796.14,1382.89,809.84,1390.73,821.38,1400.36Zm48.31-66.15c-8.85-2.52-20.66-9.53-11.73-13.94s19.66.29,19.66.29c3.59.41,25,14.24,12.73,18.71S878.53,1336.74,869.69,1334.21Zm-12.94-58c6.74-.34,12.83,11.48,4.55,13s-6.41-5.55-12.14-5.54S849.1,1276.61,856.75,1276.22Zm-38.67,108.92c-10.84-.72-2.59-5.57,1.8-14.12a9.35,9.35,0,0,1,5.73-4.32c10.76-3.5,22.62,3.58,17.45,10.1S825.69,1385.64,818.08,1385.14Z" style="fill:url(#linear-gradient-3)"/><g style="clip-path:url(#clip-path-4)"><path d="M885.4,1273.92c-.71-9.66-72.92-27-31.64,29.79,23.19,31.88-7.57,31.11-22.14,19.74-23.71-18.51-49.71.83-6.83,23,37.1,19.22,54.38,30.69,54.46,41.09s-9.69,24-29.15,20.13c-25.52-5.14-26.32,56.89,44.94,45.93,35.16-5.4,54.63-20.57,52.36-68.84S886.1,1283.57,885.4,1273.92Z" style="fill:url(#linear-gradient-17)"/></g><polygon points="851.74 1333.96 838.67 1588.26 864.16 1594.29 856.83 1333.95 851.74 1333.96" style="fill:url(#linear-gradient-18)"/><path d="M926.44,1667.82c-20.22,61.69,7.82,97.82,72.54,97.56,68.82-.29,90.81-50.72,75.28-87.33-11-25.8,22.67-73.64-13.13-105.85-18.06-16.27-28-29.86-19.32-50.17,11.82-27.78-10.33-58.06-42.44-53.65-40.87,5.59-21.17,47.69-47,59-12.63,5.52-35.41,30.24-33.27,62.37,1.3,19.65,14.49,35.53,31.69,40.38,6,1.7,12.3,4.57,16.53,9.37s7.4,23.91-8.06,26.76c-8.34,1.54-13-1.13-17.25-4.28-5.63-4.14-13.29-1.22-15.6,5.82Zm98.68,2.19c14-1.56,20.78-4.45,27.74,2.84a29.28,29.28,0,0,1,7.77,18.55c.43,7.71-1.55,17.81-13.13,22.93-20.26,9-23.16-18.82-31.46-14.07S1007.39,1672,1025.12,1670Zm18.41-89.69c16.18,10.86,6.83,20.15,6.83,20.15s-12.62,12-22.49.35-21-7.68-22.67-17.07S1027.35,1569.46,1043.53,1580.32Z" style="fill:url(#linear-gradient-4)"/><g style="clip-path:url(#clip-path-5)"><path d="M1052.38,1436.72c-1.56,0-76,17.22-64.13,55.31,10.5,33.65,40.77,28.71,31.34,51.16-11.51,27.38-61.09-12.37-64.86,36.19-2.3,29.58,34,52.86,73.85,73.2,15.77,8,24.19,65.74-53.85,41.26-46.84-14.68-64.61,59.37-21.52,86.62s122.5,33.74,133.42-68.38,14.52-204.73-9.15-222.38S1052.38,1436.72,1052.38,1436.72Z" style="fill:url(#linear-gradient-20)"/></g><polygon points="1000 1541.65 1006.02 1961.09 983.44 1967.57 996.09 1543.4 1000 1541.65" style="fill:url(#linear-gradient-21)"/><path d="M749.46,999c-.26-70.19-81.13-127-180.86-127S388,928.79,387.75,999h0v336.53H749.46V999Z" style="fill:#ecec79;opacity:0.30000000000000004"/><path d="M726,1018c-.22-66.32-70.42-120-157-120s-156.77,53.71-157,120h0v318H726V1018Z" style="fill:#ecec79"/><path d="M337.91,1282.16c-9.79,26.93,3.78,42.71,35.11,42.59,33.31-.12,44-22.14,36.44-38.13-5.3-11.26,11-32.15-6.36-46.21-8.74-7.11-13.53-13-9.35-21.91,5.72-12.13-5-25.35-20.54-23.42-19.78,2.44-10.25,20.82-22.73,25.74-6.11,2.42-17.14,13.21-16.1,27.24.63,8.58,7,15.51,15.34,17.63a17.09,17.09,0,0,1,8,4.09c2.07,2.12,3.58,10.44-3.9,11.68a10.3,10.3,0,0,1-8.35-1.87,5.08,5.08,0,0,0-7.55,2.55Zm47.76.95c6.76-.68,10.06-1.94,13.43,1.24a12.23,12.23,0,0,1,3.76,8.1,9.4,9.4,0,0,1-6.35,10c-9.81,3.91-11.22-8.21-15.23-6.14S377.09,1284,385.67,1283.11Zm8.91-39.16c7.84,4.75,3.31,8.8,3.31,8.8s-6.11,5.23-10.89.15-10.18-3.35-11-7.45S386.75,1239.21,394.58,1244Z" style="fill:url(#linear-gradient-5)"/><g style="clip-path:url(#clip-path-6)"><path d="M398.87,1181.26c-.76,0-36.8,7.51-31,24.14,5.08,14.7,19.73,12.54,15.17,22.34-5.58,12-29.58-5.4-31.4,15.8-1.11,12.92,16.44,23.08,35.75,32,7.63,3.51,11.71,28.7-26.07,18-22.67-6.41-31.27,25.92-10.41,37.82s59.29,14.73,64.57-29.86,7-89.39-4.43-97.09S398.87,1181.26,398.87,1181.26Z" style="fill:url(#linear-gradient-23)"/></g><polygon points="373.51 1227.07 376.43 1410.2 365.5 1413.03 371.62 1227.83 373.51 1227.07" style="fill:url(#linear-gradient-24)"/><path d="M773.72,1276.33c-.86-3.46-4.1-5-6.62-3.07-1.9,1.46-4,2.68-7.52,1.81-6.61-1.63-4.88-10.84-2.94-13.14a14.62,14.62,0,0,1,7.32-4.3c7.52-2.09,13.52-9.6,14.48-19.13,1.56-15.59-7.77-28-13.1-30.84-10.89-5.88-1.55-26-19.07-29.39-13.75-2.64-23.91,11.73-19.37,25.42,3.32,10-1.23,16.46-9.34,24.08-16.08,15.1-2.55,38.88-7.79,51.26-7.43,17.55,1,42.41,30.71,43.61,27.91,1.14,40.73-16,33.24-46.29Zm-39.28,14.39c-3.49-2.43-5.3,11-13.86,6.36-4.89-2.67-5.54-7.61-5.2-11.36a15.34,15.34,0,0,1,3.72-8.89c3.15-3.44,6-1.92,12-.95C738.73,1277.11,737.92,1293.16,734.44,1290.72Zm7-56.46c-.88,4.53-5.62,2.44-10.11,8s-9.7-.53-9.7-.53S717.79,1237,725,1232,742.33,1229.72,741.44,1234.26Z" style="fill:url(#linear-gradient-6)"/><g style="clip-path:url(#clip-path-7)"><path d="M724.05,1162.05c.67,0,32.44,9.56,26.55,27.89-5.21,16.19-18.16,13.32-14.55,24.38,4.42,13.49,26.6-5.06,27.25,18.6.39,14.42-15.71,25.17-33.32,34.43-7,3.67-11.75,31.59,22.4,20.9,20.49-6.41,26.67,29.86,7.54,42.44s-53.5,14.5-56.16-35.32-2.16-99.74,8.4-107.95S724.05,1162.05,724.05,1162.05Z" style="fill:url(#linear-gradient-26)"/></g><polygon points="744.53 1213.88 739.8 1410.19 748.98 1412.12 746.18 1214.78 744.53 1213.88" style="fill:url(#linear-gradient-27)"/></g></svg>