<svg xmlns="http://www.w3.org/2000/svg" viewBox="0 0 335.07 438.6"><defs><style>.cls-1,.cls-2{fill:#fff;}.cls-1{stroke:#fff;stroke-miterlimit:10;stroke-width:0.25px;}</style></defs><g id="圖層_2" data-name="圖層 2"><g id="Layer_1" data-name="Layer 1"><path class="cls-1" d="M252.33,264.81a123.89,123.89,0,0,0-21.84-5.19,121.12,121.12,0,0,0-47.32,2.54,123.88,123.88,0,0,0-24.71,9.18c-4,2-8,4.28-12,6.81a106.35,106.35,0,0,0-12,8.78c-1.87,1.58-3.72,3.3-5.56,5.05-2,1.94-4,4-6,6.22-1.79,2-3.54,4.13-5.23,6.37q-2.72,3.6-5.17,7.57c-1.55,2.48-3,5.07-4.36,7.69-1.48,2.83-2.81,5.75-4,8.71-1.11,2.8-2.07,5.64-2.92,8.47-.94,3.09-1.69,6.18-2.32,9.24-.52,2.5-.92,4.95-1.21,7.38s-.48,4.91-.6,7.31a113.7,113.7,0,0,0,.13,13.86A104.72,104.72,0,0,0,99,387.6a76.24,76.24,0,0,0,3.26,11.59,48.78,48.78,0,0,0,4.83,9.7,36.52,36.52,0,0,0,6.65,7.66,35.58,35.58,0,0,0,8,5.35c1.47.71,3,1.3,4.52,1.89.8.31,1.6.62,2.42.89s1.58.48,2.38.73c0,0,0,0,0,0-1.15-.82-2.32-1.6-3.44-2.47-1.33-1-2.68-2-4-3a52.87,52.87,0,0,1-4.31-3.79q-2.14-2.1-4.13-4.42a59.82,59.82,0,0,1-7.07-10.56q-1-1.83-1.83-3.78c-.67-1.55-1.27-3.18-1.84-4.85a78.59,78.59,0,0,1-2.59-9.9c-.58-3.13-1-6.36-1.35-9.72a96.77,96.77,0,0,1-.35-11.15,99.58,99.58,0,0,1,1.55-15.35,108.73,108.73,0,0,1,4-14.38c.72-1.95,1.49-3.86,2.34-5.77.92-2.09,2-4.13,3-6.14q1.94-3.54,4-6.88c1.33-2.08,2.72-4.06,4.15-6a108.86,108.86,0,0,1,11.5-12.72,121.48,121.48,0,0,1,9.7-8.21,118,118,0,0,1,9.92-6.67q4.32-2.58,8.63-4.81c3-1.56,6-2.92,9-4.16a129.37,129.37,0,0,1,18.15-6l-.2.05.23-.05.07,0h-.06A125,125,0,0,1,212,261.13a121,121,0,0,1,53,10.62,123.75,123.75,0,0,1,25.48,15.35,120.53,120.53,0,0,1,19,18.26,141.67,141.67,0,0,1,15.54,23.94l0-.06a102.45,102.45,0,0,1,4.92,10.61c.75,1.93,1.4,4,2,6s1.13,4.13,1.56,6.33a49.34,49.34,0,0,1,.75,5.77c.15,2.15.19,4.39.16,6.68,0,1.65-.14,3.33-.3,5.06s-.41,3.43-.74,5.18a87.67,87.67,0,0,1-3.09,11,.88.88,0,0,0,.05-.15q-.87,2.4-1.87,4.75c-.64,1.49-1.36,2.93-2.11,4.35-.9,1.65-1.84,3.25-2.83,4.82-1.15,1.82-2.38,3.54-3.63,5.21a1.77,1.77,0,0,0,.16-.22q-1.63,2.16-3.36,4.12c-1.27,1.44-2.56,2.77-3.88,4a74.69,74.69,0,0,1-6.54,5.36c-2.33,1.72-4.68,3.19-7,4.6a74.13,74.13,0,0,1-11.79,5.52c-2.06.76-4.1,1.42-6.14,2.05s-4.11,1.23-6.15,1.75l.12,0-.14,0-.12,0,.1,0a112.61,112.61,0,0,1-12,2.2c-4,.54-8,.92-12,1.21a199.08,199.08,0,0,1-23.68,0c-.53,0-1.08,0-1.6-.09l-1-.1-3.67-.4-11-1.21-11.64-1.28L182,429.14l-7.93-1.6a8.7,8.7,0,0,1-.88-.22l-3-.94c-5.54-1.7-11.08-3.37-16.6-5.1a4.25,4.25,0,0,1-.49-.21l-1.58-.7-4.79-2.09-4.74-2-1.44-.62a4.67,4.67,0,0,1-.51-.23q-2.13-1.25-4.29-2.46c-1.06-.6-2.14-1.17-3.17-1.83-1.29-.82-2.59-1.62-3.88-2.43-.66-.42-1.33-.82-2-1.23s-1.53-.93-2.26-1.45h0a29.62,29.62,0,0,0,3,2.29c1.06.75,2.14,1.48,3.22,2.2.87.57,1.74,1.16,2.63,1.69l4.32,2.59,1.77,1a5.29,5.29,0,0,0,.52.29l2.93,1.38c3.08,1.44,6.15,2.87,9.24,4.28.42.19.84.41,1.28.56l2.71.88,10.14,3.32,6.78,2.21a11.48,11.48,0,0,0,1.16.27l3.65.8L197,434.06c.35.07.7.17,1.07.22l2.16.28,9.83,1.26,10.89,1.41,3.48.44.82.11c.81.11,1.65.12,2.48.18a194.78,194.78,0,0,0,23.59.27q5.92-.35,12-1.1a104.43,104.43,0,0,0,12.19-2.21,109.15,109.15,0,0,0,11.71-3.66,71.87,71.87,0,0,0,11.94-5.66c1.83-1.08,3.66-2.33,5.48-3.63q3.12-2.24,6.2-4.94a66.62,66.62,0,0,0,5.22-5.16,68.94,68.94,0,0,0,5.15-6.55,84.33,84.33,0,0,0,4.55-7.28,72.42,72.42,0,0,0,3.77-7.9,78.14,78.14,0,0,0,2.64-7.77c.81-2.78,1.4-5.53,1.91-8.26a58.94,58.94,0,0,0,.86-7.82,74.89,74.89,0,0,0,0-7.5,51.48,51.48,0,0,0-.82-7,63.74,63.74,0,0,0-1.59-6.47q-.92-3.14-2-6.05c-.81-2.14-1.72-4.17-2.66-6.15-1.78-3.72-3.72-7.24-5.7-10.69Q318.9,317,315.43,312a116.78,116.78,0,0,0-7.31-9.49,124.41,124.41,0,0,0-16.64-16.05,129.34,129.34,0,0,0-18.54-12.51c-3.12-1.74-6.32-3.33-9.57-4.78q-5.42-2.42-11-4.33Zm-141,54.82-.14.26.14-.26ZM100.15,362v0Zm23.55,58,.07,0-.07,0Zm151.45,12.12h0Zm-89-167.44h0Z"/><path class="cls-2" d="M198.54,264.47a257.23,257.23,0,0,0-13.59-76,272.52,272.52,0,0,0-34.81-68.77,274,274,0,0,0-24.2-30,261.77,261.77,0,0,0-28.1-26.31,265.82,265.82,0,0,0-31.6-22A263,263,0,0,0,31.69,24.36a.95.95,0,0,1,.64-1.78c24.89,7.77,48.05,20.94,68.3,37.4a257.3,257.3,0,0,1,28.37,27,272.72,272.72,0,0,1,23.94,30.9,287.9,287.9,0,0,1,33.89,70.06,276.26,276.26,0,0,1,13.6,76.51.95.95,0,0,1-1.89.07Z"/><path class="cls-2" d="M50,1.85c-3.89,1.27-7.81,2.43-11.77,3.41s-8,1.84-12,2.47A145.48,145.48,0,0,1,1.67,9.67L3.21,7.05C5.4,10.33,7.53,13.65,9.63,17s4.06,6.77,6,10.22,3.73,7,5.38,10.55a99.27,99.27,0,0,1,4.41,11,1,1,0,0,1-1.7.83c-2.23-3.28-4.25-6.64-6.22-10s-3.88-6.8-5.77-10.22L6,19.1C4.15,15.67,2.23,12.26.29,8.86L.22,8.75a1.69,1.69,0,0,1,.63-2.3,1.65,1.65,0,0,1,1-.22,111.3,111.3,0,0,0,24.06-.47,117.08,117.08,0,0,0,11.88-2.2A103.44,103.44,0,0,0,49.34.06a.94.94,0,0,1,1.21.56A1,1,0,0,1,50,1.84Z"/></g></g></svg>