<svg id="a58680d0-2faa-41ae-a518-4ddd1fdde685" data-name="圖層 1" xmlns="http://www.w3.org/2000/svg" viewBox="0 0 480.81 834.71"><path d="M314.11,261.94l27.72,25.65c11.48,10.62,21.73,20.79,38.46,8.33,7.86-5.86,13.34-11.05,13.06-20.6-.35-11.57-6.16-12.63-15.19-17.38-14.71-7.74-29.62-15.05-45-21.34Z" style="fill:#e9b8ae"/><path d="M370.31,228.9c5.92,17.21-28.71,63.59-37.4,55.51-108.38-100.7-88.27-146.36-88.27-146.36S303,116.3,370.31,228.9Z" style="fill:#f4d580"/><path d="M209.06,94.34l-15,60.43s26.19,26.62,40.13,28c16.21,1.63,6.22-84,6.22-84Z" style="fill:#e9b8ae"/><path d="M248.86,783.79l8.73-53.39-21.68,8-4,41.39s-8.32,7-.31,14.19,27.82,9.74,32.22,8.34C273,799.39,248.86,783.79,248.86,783.79Z" style="fill:#f3c5c0"/><path d="M305.76,362.56c-33-55.39-105.73-17.91-119.52-2.36C234,432,229.14,765.82,229.14,765.82s24,2.84,25.09,2.43c58.71-185,52.18-365.61,51.66-399.84C305.83,364.59,305.76,362.56,305.76,362.56Z" style="fill:#8ac7c9"/><path d="M249.42,783.62c-13.7,3.88-17.82-5-17.82-5s-11.38,6.22-7.57,15.26c4,9.42,56.17,33.93,57.62,20.09C282.56,805.31,249.42,783.62,249.42,783.62Z" style="fill:#231815"/><path d="M251.67,786.53s-4.76,1.55-7.36,4.64C243.32,793.52,257.1,787.37,251.67,786.53Z" style="fill:#f0f0f0"/><path d="M258.19,791.71s-4.72,1.55-7.29,4.65C249.92,798.72,263.56,792.55,258.19,791.71Z" style="fill:#f0f0f0"/><path d="M264.47,796.13a15.47,15.47,0,0,0-6.25,4.16C257.39,802.4,269.09,796.89,264.47,796.13Z" style="fill:#f0f0f0"/><path d="M75.27,735.87l-14.53,39s-9.83,4.57-4,13.63,24.35,16.59,29,16.39c9.62-.44-11-20.71-11-20.71L98.09,736Z" style="fill:#f3c5c0"/><path d="M136.16,359c3.09,102.46-75.5,402.89-75.5,402.89s22.44,9,23.61,8.83C190.07,607.44,229.18,431,237.53,397.77c.93-3.69,1.39-5.68,1.39-5.68C221.34,330.05,153.5,347.49,136.16,359Z" style="fill:#8ac7c9"/><path d="M60.7,773.64s-12.6,3.06-11.26,12.78c1.4,10.13,45.49,47.3,50.48,34.3,3.11-8.12-23.3-37.64-23.3-37.64C62.38,783.28,60.7,773.64,60.7,773.64Z" style="fill:#231815"/><path d="M78.05,786.47s-5,.26-8.31,2.58C68.17,791.07,83.07,788.68,78.05,786.47Z" style="fill:#f0f0f0"/><path d="M83,793.16s-5,.27-8.24,2.6C73.21,797.79,88,795.36,83,793.16Z" style="fill:#f0f0f0"/><path d="M87.93,799.05a15.52,15.52,0,0,0-7.11,2.4C79.46,803.28,92.19,801,87.93,799.05Z" style="fill:#f0f0f0"/><path d="M103,211.71C87.64,224.78,35.72,366.43,25.6,403.51A111.47,111.47,0,0,0,15.09,424a10.57,10.57,0,0,0,.71,8.9A28,28,0,0,0,27.14,444.2c4.9,2.54,6.71-7,7.33-6.41.17.17,4.23,4.16,8.37-4.75,2.8-6,2.12-18.18,1.78-22.39,11.5-21.36,84.22-128.39,84.22-128.39S116.4,213.23,103,211.71Z" style="fill:#f3c5c0"/><path d="M244.64,138.05c-.12.2-9.72,14.84-26.76,8.37-14.73-5.59-17.19-14.78-17.12-16.38.23-5.32-58.46,7.72-62,12.23-10,12.67-27.15,169.7-10.95,277.13,2,4.35,61.72,41.63,174.34,25.91,13.06-1.82,14.3-26,14.43-35.37.34-25.61,3.36-50.9,3.89-76.62,1.27-61.23,15.67-140.61-39.57-182.88C276,146.72,250.05,129.78,244.64,138.05Z" style="fill:#f4d580"/><path d="M76.75,256.73c1.46,18.13,43.83,54.53,44.83,42.71,9.61-113.77,17.67-156.86,17.67-156.86S103.91,161.18,76.75,256.73Z" style="fill:#f4d580"/><path d="M215.46,32.67C239.1,11,257.61,53.76,253.38,86.46c-7.13,55.21-39.24,33.7-47.43,12.81C183.38,57.67,213.33,34.63,215.46,32.67Z" style="fill:#f3c5c0"/><path d="M177.29,43.61c.58-24,11.93-36.53,44.29-28.22,12,3.09,21.71,3.34,27.83,1.93,4.46-1,8.92,2.43,9.88,7.39a56.07,56.07,0,0,1,.95,7.79c.42,9.18-1.87,19.24-12.25,24a59.41,59.41,0,0,1-16.68,5c-3.41.46-6.93.31-10.31.92a7.37,7.37,0,0,0-5.69,3.9c-.6,1.12-.8,4.53-1.45,5.16-1.46,1.41-2-1.53-2.47-2.53A8.14,8.14,0,0,0,208,65.28c-2.9-1.56-6-.28-7.89,2.17-1.36,1.71-2.56,6.69,5.05,14.54.77,6.07-1.67,14.77-1.67,14.77A127.38,127.38,0,0,1,187.7,76.83a2.43,2.43,0,0,1,0-.27C182,67.23,177,55.6,177.29,43.61Z" style="fill:#231815"/><path d="M207.7,71.43a2.73,2.73,0,1,1-3,2.41A2.72,2.72,0,0,1,207.7,71.43Z" style="fill:#efeeef"/><path d="M207.69,72.49A1.66,1.66,0,1,1,205.86,74,1.67,1.67,0,0,1,207.69,72.49Z" style="fill:#fff"/><path d="M208.28,80.23a.94.94,0,0,1-.92-.8L206.84,76a.93.93,0,1,1,1.85-.27l.52,3.47a1,1,0,0,1-.79,1.07Z" style="fill:#fff"/><path d="M438.2,148.56c8.5-24.37-2.07-37-2.94-37.78S432.45,100.17,427,117c-2.23,6.93-6.82,8.14-7.43,22.88-.21,5-2.09,10.3-5,15.74-46.89,65.73-70.57,116.46-64.37,137.43,3,10.05,18.52,13.75,27,7.62C428.09,264,436.43,178,438.2,148.56Z" style="fill:#f3c5c0"/><path d="M463.31,83.5a1.65,1.65,0,0,0-2.38-1.69L436.3,94.1a1.65,1.65,0,0,0-.89,1.18l-10.67,58.5a1.65,1.65,0,0,0,2.06,1.89l27.08-7.47a1.66,1.66,0,0,0,1.2-1.38Z" style="fill:#231815"/><path d="M460,88.85a1.12,1.12,0,0,0-1.64-1.14L436.77,99.43a1.11,1.11,0,0,0-.58.81l-8,46.66a1.13,1.13,0,0,0,1.4,1.27l23-6.16a1.11,1.11,0,0,0,.83-.94Z" style="fill:#dcdcdc"/><path d="M458.17,122.93v0C458.4,123.12,458.17,122.93,458.17,122.93Z" style="fill:#f3c5c0"/><path d="M463.37,106.49c-3.48-4.6-7.2-6.65-8.71-6.71-5.34-.21-4.88,17.16-1.27,19.79,3.39,2.47,4.48,3.22,4.78,3.41v0s.23.19,0,0c-.08.46-1.8,11.79-1.32,11.76.7,0,6.55-4.58,7.84-11.46C465.66,118.13,466.85,111.07,463.37,106.49Z" style="fill:#f3c5c0"/></svg>