<svg xmlns="http://www.w3.org/2000/svg" viewBox="0 0 758.16 464.88"><defs><style>.cls-1{fill:#fff;}</style></defs><g id="圖層_2" data-name="圖層 2"><g id="Layer_1" data-name="Layer 1"><path class="cls-1" d="M389.51,464.87a170.92,170.92,0,0,1-46.08-9.67,177.6,177.6,0,0,1-41.94-21.64,165.12,165.12,0,0,1-18.39-15,147.59,147.59,0,0,1-15.89-17.71c-9.6-12.62-17.11-27-20.94-42.4a.95.95,0,0,1,1.8-.58,174,174,0,0,0,22.69,40.29A167.94,167.94,0,0,0,286,415.58a164.74,164.74,0,0,0,17.49,15.24,161.42,161.42,0,0,0,40.63,22.51A151.78,151.78,0,0,0,389.62,463a1,1,0,0,1-.1,1.9Z"/><path class="cls-1" d="M232.35,368.05a55.21,55.21,0,0,0,2.35-6.88,66,66,0,0,0,1.5-7.11,62.44,62.44,0,0,0,.45-14.45,1.66,1.66,0,0,1,2.48-1.57l.19.11,6.15,3.53,6.1,3.57c2,1.19,4,2.42,6,3.75a57.85,57.85,0,0,1,5.73,4.3,1,1,0,0,1-.89,1.68,42,42,0,0,1-6.78-2.52,62,62,0,0,1-6.34-3.38q-3.07-1.83-6-3.86c-2-1.35-3.91-2.76-5.82-4.2l2.67-1.46a96.85,96.85,0,0,1-1.93,14.85c-.47,2.44-1.11,4.84-1.77,7.23s-1.46,4.75-2.27,7.09a.94.94,0,0,1-1.21.58.93.93,0,0,1-.58-1.2A.14.14,0,0,1,232.35,368.05Z"/><path class="cls-1" d="M367,0a725.27,725.27,0,0,0-72.48,4.2,625.93,625.93,0,0,0-71.85,12A511,511,0,0,0,154.9,36.38a395.61,395.61,0,0,0-63,30C82.36,72,73.14,78.22,64.22,84.8a205.15,205.15,0,0,0-25.13,21.79c-3.64,3.75-7.07,7.71-10.41,11.73a154.89,154.89,0,0,0-10.34,14A116,116,0,0,0,10.6,146a111,111,0,0,0-6.06,15.73,117.86,117.86,0,0,0-3.43,15.44A89.71,89.71,0,0,0,0,194.12,102.34,102.34,0,0,0,1.9,210a114.36,114.36,0,0,0,4.66,16.83,107.1,107.1,0,0,0,5.67,13.06,137.11,137.11,0,0,0,7.44,12.58,183.6,183.6,0,0,0,17.88,23.13A220.49,220.49,0,0,0,59.1,296a202.55,202.55,0,0,0,24.47,17.48,178.45,178.45,0,0,0,56.59,22.27,209.71,209.71,0,0,0,31.05,4.21c5.34.32,10.7.41,16,.49,2.81.05,5.62.09,8.43.06s5.4-.12,8.1-.18c0,0,0,0,0,0-4.51-.69-9-1.31-13.51-2.09-5.3-.91-10.61-1.77-15.9-2.7-6-1.09-11.9-2.34-17.79-3.8q-9.09-2.24-18.06-5a259.64,259.64,0,0,1-34.67-13.49c-3.46-1.68-6.9-3.42-10.28-5.26-4-2.18-7.87-4.57-11.7-7a201.42,201.42,0,0,1-20.31-15c-5.7-4.89-11.18-10-16.37-15.47A167.12,167.12,0,0,1,30.06,252a130.55,130.55,0,0,1-14.71-26.6A112.61,112.61,0,0,1,9.21,199a85.91,85.91,0,0,1,1.13-23.08A119.16,119.16,0,0,1,13.9,162a106.74,106.74,0,0,1,4.94-12.45,143.15,143.15,0,0,1,18.67-28.08A203.38,203.38,0,0,1,56.44,102,244.76,244.76,0,0,1,78,85q9.78-6.89,20-13.15c7.14-4.38,14.48-8.43,21.92-12.27a435.66,435.66,0,0,1,47.2-20.78l-.54.2.61-.23.18-.06-.15,0a543.21,543.21,0,0,1,73.59-21.13A651.08,651.08,0,0,1,318.6,6.07a723.49,723.49,0,0,1,95.53-1.95,739.92,739.92,0,0,1,96.33,10.66,644.67,644.67,0,0,1,80.42,19.34C617.32,42.45,643,53.13,668,65l-.17-.08c9.61,4.59,19.1,9.42,28.26,14.85,4.7,2.79,9.25,5.82,13.74,8.93s8.63,6.25,12.72,9.67a109.3,109.3,0,0,1,9.54,9.22A130.05,130.05,0,0,1,741,118.68c2,2.8,3.8,5.66,5.5,8.64a70.91,70.91,0,0,1,4.3,9.12,90,90,0,0,1,4.53,20.19,2.83,2.83,0,0,0,0-.29,83,83,0,0,1,.33,9.06,58.15,58.15,0,0,1-.86,8.53,85.94,85.94,0,0,1-2.47,9.72A85,85,0,0,1,748,194.52l.21-.46a95.17,95.17,0,0,1-4.95,8.88,87.24,87.24,0,0,1-6.63,9,126.69,126.69,0,0,1-13,12.84c-4.9,4.25-10.12,8.1-15.4,11.84a205.32,205.32,0,0,1-28.64,16.19c-5.25,2.49-10.58,4.8-15.94,7.05s-10.86,4.49-16.36,6.56l.33-.13-.38.14-.33.13.28-.11c-11,4.07-22.27,7.59-33.59,10.81q-17.25,4.9-34.72,9.09c-23.58,5.72-47.49,10-71.42,14-1.65.27-3.3.58-5,.79l-3.08.4-11.57,1.49L453,307.57l-36.77,4.74-53.81,4.15-26,2c-1,.08-1.94.14-2.93.16l-10.41.23c-18.85.42-37.7.89-56.55,1.27-.57,0-1.16-.05-1.73-.08l-5.68-.23q-8.53-.35-17.08-.67l-16.89-.63-5.12-.19c-.61,0-1.22,0-1.83-.07-5.35-.54-10.71-1.08-16.07-1.59-4-.39-7.93-.69-11.88-1.18-4.93-.62-9.86-1.19-14.8-1.79-2.51-.3-5-.58-7.55-.89-2.88-.35-5.77-.64-8.65-1.08,0,0,0,0,0,0,3.93.88,7.92,1.46,11.9,2.06,4.16.62,8.33,1.2,12.5,1.77,3.36.45,6.71.92,10.07,1.29q8.16.9,16.32,1.77l6.64.7c.65.07,1.3.15,1.95.19l10.6.57q16.64.88,33.28,1.71c1.53.08,3.07.2,4.6.18l9.29-.11,34.8-.44,23.26-.29c1.28,0,2.57-.17,3.85-.25l12-.8,63.32-4.21c1.17-.08,2.34-.12,3.5-.26l6.87-.81,31.29-3.68,34.65-4.08,11.08-1.3,2.6-.31c2.58-.3,5.15-.77,7.72-1.17,24-3.74,47.91-7.95,71.56-13.46q17.45-4.06,34.72-8.89c11.46-3.2,22.83-6.77,34-10.9,10.43-3.87,20.68-8.27,30.73-13a198.72,198.72,0,0,0,28.91-16.52c4.14-2.89,8.09-6,12-9.31a140.51,140.51,0,0,0,12.48-11.92,97.45,97.45,0,0,0,9.24-11.71,80.22,80.22,0,0,0,7.27-14,84,84,0,0,0,4.54-14.87,68.85,68.85,0,0,0,1.42-15.43,77.54,77.54,0,0,0-1.83-14.56,93.38,93.38,0,0,0-4.7-15,76,76,0,0,0-7.25-13.58,117.64,117.64,0,0,0-9.56-12.55,102,102,0,0,0-11.24-11.15c-4.13-3.54-8.52-6.77-13-9.88s-9.06-6.12-13.74-8.93c-5.15-3.1-10.45-6-15.8-8.71C671,64.72,660.7,60,650.37,55.38q-16.44-7.32-33.27-13.69c-11.21-4.25-22.58-8.06-34.05-11.56a661.34,661.34,0,0,0-70.53-17q-35.62-6.71-71.77-10Q423.32,1.5,405.82.74,386.44-.1,367,0ZM10.5,175l-.09.52.09-.52Zm19.89,77.49.17.25-.17-.25Zm144.28,83.08.26,0-.26,0ZM647.2,266.45l0,0h0l-.1,0ZM167.12,38.77l-.07,0,.1,0Z"/></g></g></svg>